M48
; DRILL file {KiCad (7.0.0)} date Mon Mar  6 12:03:38 2023
; FORMAT={2:4/ absolute / inch / suppress leading zeros}
; #@! TF.CreationDate,2023-03-06T12:03:38-08:00
; #@! TF.GenerationSoftware,Kicad,Pcbnew,(7.0.0)
; #@! TF.FileFunction,MixedPlating,1,2
FMAT,2
INCH,TZ
; #@! TA.AperFunction,Plated,PTH,ComponentDrill
T1C0.0300
; #@! TA.AperFunction,Plated,PTH,ComponentDrill
T2C0.0315
; #@! TA.AperFunction,Plated,PTH,ComponentDrill
T3C0.0394
; #@! TA.AperFunction,Plated,PTH,ComponentDrill
T4C0.0472
; #@! TA.AperFunction,NonPlated,NPTH,ComponentDrill
T5C0.1260
%
G90
G05
T1
X26500Y-40700
X26500Y-41700
X26500Y-42700
X26500Y-43700
X29189Y-18700
X29189Y-19700
X29189Y-20700
X29189Y-21700
X29189Y-22700
X29189Y-23700
X29189Y-24700
X29189Y-25700
X29189Y-26700
X29189Y-27700
X29189Y-28700
X29189Y-29700
X29189Y-30700
X29189Y-31700
X29189Y-32700
X38189Y-18700
X38189Y-19700
X38189Y-20700
X38189Y-21700
X38189Y-22700
X38189Y-23700
X38189Y-24700
X38189Y-25700
X38189Y-26700
X38189Y-27700
X38189Y-28700
X38189Y-29700
X38189Y-30700
X38189Y-31700
X38189Y-32700
X40500Y-39700
X40500Y-40700
X40500Y-41700
X40500Y-42700
X40500Y-43700
X40500Y-44700
X46900Y-26919
X46900Y-30519
X47543Y-38157
X47543Y-39157
X47543Y-40157
X47543Y-41157
X47543Y-42157
X52900Y-26919
X52900Y-30519
T2
X46398Y-32992
X49350Y-32992
T3
X27740Y-50394
X28740Y-50394
X29740Y-50394
X30740Y-50394
X43850Y-48819
X44850Y-48819
X45323Y-18110
X45323Y-24016
X45850Y-48819
X46850Y-48819
X56055Y-48819
X56772Y-20079
X56772Y-22047
X57055Y-48819
X58055Y-48819
X59055Y-48819
X59843Y-20496
X59843Y-21496
X59921Y-25039
X59921Y-26039
X59921Y-27039
X59921Y-28039
X59921Y-29039
T4
X34902Y-48819
X34902Y-50787
X34902Y-52756
X39902Y-48819
X39902Y-50787
X39902Y-52756
T5
X25591Y-17717
X25984Y-53150
X61024Y-17717
X61024Y-53150
T0
M30
