G04 #@! TF.GenerationSoftware,KiCad,Pcbnew,(7.0.0)*
G04 #@! TF.CreationDate,2023-03-06T12:06:33-08:00*
G04 #@! TF.ProjectId,Schematic,53636865-6d61-4746-9963-2e6b69636164,01*
G04 #@! TF.SameCoordinates,Original*
G04 #@! TF.FileFunction,Soldermask,Top*
G04 #@! TF.FilePolarity,Negative*
%FSLAX46Y46*%
G04 Gerber Fmt 4.6, Leading zero omitted, Abs format (unit mm)*
G04 Created by KiCad (PCBNEW (7.0.0)) date 2023-03-06 12:06:33*
%MOMM*%
%LPD*%
G01*
G04 APERTURE LIST*
%ADD10C,1.524000*%
%ADD11R,1.700000X1.700000*%
%ADD12O,1.700000X1.700000*%
%ADD13C,3.200000*%
%ADD14C,2.400000*%
%ADD15O,2.400000X2.400000*%
%ADD16C,1.600000*%
%ADD17O,1.600000X1.600000*%
%ADD18R,2.300000X2.000000*%
%ADD19C,2.300000*%
G04 APERTURE END LIST*
D10*
X67310000Y-103378000D03*
X67310000Y-105918000D03*
X67310000Y-108458000D03*
X67310000Y-110998000D03*
X102870000Y-113538000D03*
X102870000Y-110998000D03*
X102870000Y-108458000D03*
X102870000Y-105918000D03*
X102870000Y-103378000D03*
X102870000Y-100838000D03*
X119126000Y-77518000D03*
X119126000Y-68374000D03*
X134366000Y-77518000D03*
X134366000Y-68374000D03*
D11*
X142379999Y-123999999D03*
D12*
X144919999Y-123999999D03*
X147459999Y-123999999D03*
X149999999Y-123999999D03*
D13*
X155000000Y-135000000D03*
X66000000Y-135000000D03*
D14*
X88650000Y-124000000D03*
D15*
X101349999Y-123999999D03*
D13*
X155000000Y-45000000D03*
D14*
X101350000Y-134000000D03*
D15*
X88649999Y-133999999D03*
D11*
X111379999Y-123999999D03*
D12*
X113919999Y-123999999D03*
X116459999Y-123999999D03*
X118999999Y-123999999D03*
D11*
X78079999Y-127999999D03*
D12*
X75539999Y-127999999D03*
X72999999Y-127999999D03*
X70459999Y-127999999D03*
D14*
X101350000Y-129000000D03*
D15*
X88649999Y-128999999D03*
D16*
X125350000Y-83800000D03*
D17*
X117849999Y-83799999D03*
D10*
X97000000Y-83058000D03*
X97000000Y-80518000D03*
X97000000Y-77978000D03*
X97000000Y-75438000D03*
X97000000Y-72898000D03*
X97000000Y-70358000D03*
X97000000Y-67818000D03*
X97000000Y-65278000D03*
X97000000Y-62738000D03*
X97000000Y-60198000D03*
X97000000Y-57658000D03*
X97000000Y-55118000D03*
X97000000Y-52578000D03*
X97000000Y-50038000D03*
X97000000Y-47498000D03*
X74140000Y-47498000D03*
X74140000Y-50038000D03*
X74140000Y-52578000D03*
X74140000Y-55118000D03*
X74140000Y-57658000D03*
X74140000Y-60198000D03*
X74140000Y-62738000D03*
X74140000Y-65278000D03*
X74140000Y-67818000D03*
X74140000Y-70358000D03*
X74140000Y-72898000D03*
X74140000Y-75438000D03*
X74140000Y-77978000D03*
X74140000Y-80518000D03*
X74140000Y-83058000D03*
X120760000Y-96920000D03*
X120760000Y-99460000D03*
X120760000Y-102000000D03*
X120760000Y-104540000D03*
X120760000Y-107080000D03*
D11*
X151999999Y-54599999D03*
D12*
X151999999Y-52059999D03*
D18*
X144199999Y-55999999D03*
D19*
X144200000Y-51000000D03*
X115120000Y-61000000D03*
X115120000Y-46000000D03*
D13*
X65000000Y-45000000D03*
D11*
X152199999Y-63599999D03*
D12*
X152199999Y-66139999D03*
X152199999Y-68679999D03*
X152199999Y-71219999D03*
X152199999Y-73759999D03*
M02*
